
<svg width="3367px" height="528px" viewBox="0 0 3367 528" version="1.1" xmlns="http://www.w3.org/2000/svg" xmlns:xlink="http://www.w3.org/1999/xlink">
    <desc>ViewAnimator banner</desc>
    <defs></defs>
    <g id="Page-1" stroke="none" stroke-width="1" fill="none" fill-rule="evenodd">
        <g id="banner" transform="translate(0.000000, -97.000000)">
            <g id="logo" transform="translate(0.000000, 97.000000)" fill-rule="nonzero">
                <rect id="background" fill="#FFFFFF" x="0" y="0" width="528" height="528"></rect>
                <g id="Table" transform="translate(16.000000, 220.000000)" fill="#DC4E41">
                    <rect id="cell-one" x="0" y="0" width="497" height="89.3190395" rx="5"></rect>
                    <rect id="cell-two" fill-opacity="0.65" x="0" y="103.259005" width="497" height="89.3190395" rx="5"></rect>
                    <rect id="cell-three" fill-opacity="0.4" x="0" y="211.680961" width="497" height="89.3190395" rx="5"></rect>
                </g>
                <g id="Collection" transform="translate(0.000000, 42.000000)" fill="#4A90E2">
                    <rect id="item-one" opacity="0.3" x="0" y="0" width="134.578125" height="135" rx="5"></rect>
                    <rect id="item-two" opacity="0.599014946" x="160.359375" y="0" width="134.578125" height="135" rx="5"></rect>
                    <rect id="item-three" opacity="0.8" x="315.5625" y="0" width="134.578125" height="135" rx="5"></rect>
                    <rect id="item-four" x="465.609375" y="0" width="62.390625" height="135" rx="5"></rect>
                </g>
            </g>
            <path d="M762.828125,137.65625 L822.886719,137.65625 L850.132812,304.648438 L854.820312,334.824219 L864.488281,400.449219 C866.050789,411.582087 867.466791,421.738235 868.736328,430.917969 C870.005866,440.097702 871.128901,448.3984 872.105469,455.820312 L875.035156,478.085938 C875.621097,473.593728 876.109373,469.589861 876.5,466.074219 C876.890627,462.558576 877.281248,459.628918 877.671875,457.285156 L885.582031,404.84375 L895.835938,335.996094 C896.812505,329.746062 897.74023,323.984401 898.619141,318.710938 C899.498051,313.437474 900.328121,308.750021 901.109375,304.648438 L930.40625,137.65625 L987.242188,137.65625 L898.472656,590 L850.132812,590 L762.828125,137.65625 Z M1027.39194,286.777344 L1083.64194,286.777344 L1083.64194,590 L1027.39194,590 L1027.39194,286.777344 Z M1053.75912,157.871094 C1063.91543,157.871094 1072.7044,161.581994 1080.12631,169.003906 C1087.54822,176.425818 1091.25912,185.312448 1091.25912,195.664062 C1091.25912,206.21099 1087.54822,215.195275 1080.12631,222.617188 C1072.7044,230.0391 1063.72012,233.75 1053.17319,233.75 C1042.62626,233.75 1033.64197,230.0391 1026.22006,222.617188 C1018.99346,215.390589 1015.38022,206.308648 1015.38022,195.371094 C1015.38022,185.214793 1019.09112,176.425818 1026.51303,169.003906 C1034.52088,161.581994 1043.60282,157.871094 1053.75912,157.871094 Z M1264.12372,487.753906 L1316.27216,487.753906 C1312.17057,559.043325 1282.87399,594.6875 1228.38153,594.6875 C1212.17051,594.6875 1198.25464,591.660187 1186.63348,585.605469 C1175.01233,579.550751 1165.39329,570.175845 1157.77606,557.480469 C1150.15884,544.785093 1144.54366,528.671973 1140.93036,509.140625 C1137.31706,489.609277 1135.51044,466.367322 1135.51044,439.414062 C1135.51044,385.89817 1142.98107,346.250129 1157.92255,320.46875 C1172.86403,294.687371 1195.9595,281.796875 1227.20966,281.796875 C1287.95215,281.796875 1318.32294,335.311965 1318.32294,442.34375 L1318.32294,449.375 L1190.29559,449.375 C1190.29559,514.219074 1203.18609,546.640625 1228.96747,546.640625 C1252.40509,546.640625 1264.12372,527.011915 1264.12372,487.753906 Z M1261.19403,408.945313 C1258.85027,377.109216 1255.23702,356.210987 1250.35419,346.25 C1245.27604,335.117132 1237.07299,329.550781 1225.74481,329.550781 C1214.22132,329.550781 1206.01827,335.117132 1201.13544,346.25 C1196.2526,356.210987 1192.63936,377.109216 1190.29559,408.945313 L1261.19403,408.945313 Z M1337.67191,286.777344 L1396.85159,286.777344 L1413.84378,384.335938 C1417.16411,403.867285 1420.1426,422.714753 1422.77933,440.878906 C1425.41606,459.04306 1427.51565,476.718664 1429.07816,493.90625 L1429.95706,504.453125 L1431.12894,493.320312 C1432.69145,479.257742 1434.30276,466.318418 1435.96292,454.501953 C1437.62309,442.685488 1439.42971,431.796925 1441.38284,421.835938 L1446.07034,398.691406 L1466.87112,286.777344 L1507.59378,286.777344 L1527.22269,398.691406 L1533.668,433.847656 C1535.03519,440.488314 1536.30471,448.740185 1537.47659,458.603516 C1538.64847,468.466846 1539.82034,480.136651 1540.99222,493.613281 L1542.16409,504.453125 C1545.67974,468.124818 1550.66016,432.871265 1557.1055,398.691406 L1577.90628,286.777344 L1632.98441,286.777344 L1561.793,590 L1523.12112,590 L1499.97659,474.277344 C1497.24221,460.214773 1494.89848,445.810621 1492.94534,431.064453 C1490.99221,416.318286 1489.33207,400.644614 1487.96487,384.042969 C1487.76956,382.089834 1487.57425,379.746107 1487.37894,377.011719 C1487.18362,374.27733 1486.89066,371.054706 1486.50003,367.34375 C1485.32815,385.117276 1483.66801,402.353432 1481.51956,419.052734 C1479.37111,435.752037 1476.73442,452.402261 1473.60941,469.003906 L1450.17191,590 L1411.50003,590 L1337.67191,286.777344 Z M1737.29431,137.65625 L1784.75525,137.65625 L1881.72791,590 L1821.37634,590 L1804.38416,501.816406 L1714.73572,501.816406 L1697.45056,590 L1638.85681,590 L1737.29431,137.65625 Z M1795.59509,454.648438 L1782.11853,382.578125 C1773.13411,333.554442 1765.80997,281.211216 1760.14587,225.546875 C1757.41149,252.695448 1753.8959,280.185408 1749.599,308.017578 C1745.3021,335.849749 1740.22403,365.390469 1734.36462,396.640625 L1723.23181,454.648438 L1795.59509,454.648438 Z M1914.55344,286.777344 L1970.51047,286.777344 L1970.51047,321.640625 C1986.52617,295.077992 2007.22909,281.796875 2032.61984,281.796875 C2057.22934,281.796875 2074.80729,291.464747 2085.35422,310.800781 C2091.21362,321.738336 2094.14328,342.92953 2094.14328,374.375 L2094.14328,590 L2038.18625,590 L2037.89328,387.265625 C2037.89328,366.75771 2035.4519,352.207074 2030.56906,343.613281 C2025.68623,335.019488 2017.28787,330.722656 2005.37375,330.722656 C1998.92841,330.722656 1993.50854,331.845692 1989.11398,334.091797 C1984.71943,336.337902 1981.15501,339.951147 1978.42062,344.931641 C1975.68624,349.912134 1973.6843,356.40621 1972.41477,364.414062 C1971.14523,372.421915 1970.51047,382.285098 1970.51047,394.003906 L1970.51047,590 L1914.55344,590 L1914.55344,286.777344 Z M2157.73053,286.777344 L2213.98053,286.777344 L2213.98053,590 L2157.73053,590 L2157.73053,286.777344 Z M2184.09772,157.871094 C2194.25402,157.871094 2203.04299,161.581994 2210.46491,169.003906 C2217.88682,176.425818 2221.59772,185.312448 2221.59772,195.664062 C2221.59772,206.21099 2217.88682,215.195275 2210.46491,222.617188 C2203.04299,230.0391 2194.05871,233.75 2183.51178,233.75 C2172.96485,233.75 2163.98057,230.0391 2156.55866,222.617188 C2149.33206,215.390589 2145.71881,206.308648 2145.71881,195.371094 C2145.71881,185.214793 2149.42971,176.425818 2156.85162,169.003906 C2164.85948,161.581994 2173.94142,157.871094 2184.09772,157.871094 Z M2277.27481,286.777344 L2333.23184,286.777344 L2333.23184,324.277344 C2348.66161,295.95689 2369.16922,281.796875 2394.75528,281.796875 C2422.68511,281.796875 2441.63023,295.95689 2451.59122,324.277344 C2466.43504,295.95689 2487.52858,281.796875 2514.87247,281.796875 C2536.16164,281.796875 2552.42124,287.412053 2563.65177,298.642578 C2574.88229,309.873103 2580.49747,326.425672 2580.49747,348.300781 L2580.49747,590 L2524.24747,590 L2524.24747,390.488281 C2524.24747,367.636604 2522.09905,352.304727 2517.80216,344.492188 C2513.70057,336.484335 2505.69284,332.480469 2493.77872,332.480469 C2480.30209,332.480469 2471.12249,336.58199 2466.23966,344.785156 C2461.55213,352.793009 2459.20841,368.027231 2459.20841,390.488281 L2459.20841,590 L2401.20059,590 L2401.20059,390.488281 C2401.20059,379.74604 2400.66349,370.6641 2399.58927,363.242188 C2398.51504,355.820275 2396.70842,349.863304 2394.16934,345.371094 C2391.63027,340.878884 2388.30999,337.607432 2384.20841,335.556641 C2380.10682,333.505849 2375.02875,332.480469 2368.97403,332.480469 C2356.08334,332.480469 2346.90375,336.874956 2341.43497,345.664062 C2335.96619,354.453169 2333.23184,369.394426 2333.23184,390.488281 L2333.23184,590 L2277.27481,590 L2277.27481,286.777344 Z M2817.22925,286.777344 L2817.22925,590 L2761.27222,590 L2761.27222,551.035156 C2753.26437,567.636802 2745.25663,579.062469 2737.24878,585.3125 C2729.24093,591.562531 2718.69416,594.6875 2705.60816,594.6875 C2680.41272,594.6875 2661.95587,581.797004 2650.23706,556.015625 C2638.51825,530.234246 2632.65894,489.804963 2632.65894,434.726562 C2632.65894,382.187237 2638.51825,343.564577 2650.23706,318.857422 C2661.95587,294.150267 2680.41272,281.796875 2705.60816,281.796875 C2728.65515,281.796875 2747.20965,294.882682 2761.27222,321.054688 L2761.27222,286.777344 L2817.22925,286.777344 Z M2690.66675,437.070312 C2690.66675,476.914262 2693.30344,504.746015 2698.57691,520.566406 C2704.04568,536.386798 2713.6159,544.296875 2727.28784,544.296875 C2739.78791,544.296875 2748.86985,536.093832 2754.53394,519.6875 C2760.19803,502.109287 2763.03003,475.058776 2763.03003,438.535156 C2763.03003,401.816223 2760.19803,374.668057 2754.53394,357.089844 C2748.86985,340.683512 2739.78791,332.480469 2727.28784,332.480469 C2714.00653,332.480469 2704.53397,340.292891 2698.86987,355.917969 C2693.4011,370.371166 2690.66675,397.421677 2690.66675,437.070312 Z M2887.84775,201.816406 L2943.80478,201.816406 L2943.80478,286.777344 L2974.27353,286.777344 L2974.27353,331.308594 L2943.80478,331.308594 L2943.80478,590 L2887.84775,590 L2887.84775,331.308594 L2857.08603,331.308594 L2857.08603,286.777344 L2887.84775,286.777344 L2887.84775,201.816406 Z M3192.54828,440.878906 C3192.54828,543.418481 3160.81032,594.6875 3097.33344,594.6875 C3033.85656,594.6875 3002.11859,542.637239 3002.11859,438.535156 C3002.11859,334.042446 3033.7589,281.796875 3097.04047,281.796875 C3113.4468,281.796875 3127.65564,284.921844 3139.66742,291.171875 C3151.6792,297.421906 3161.59121,307.089778 3169.40375,320.175781 C3177.21629,333.261784 3183.02678,349.765525 3186.83539,369.6875 C3190.644,389.609475 3192.54828,413.339706 3192.54828,440.878906 Z M3134.54047,439.414063 C3134.54047,399.570113 3131.90378,371.836016 3126.63031,356.210938 C3121.35685,340.390546 3111.98194,332.480469 3098.50531,332.480469 C3085.224,332.480469 3075.75143,340.292891 3070.08734,355.917969 C3064.81388,371.543047 3062.17719,398.788868 3062.17719,437.65625 C3062.17719,476.523632 3064.81388,503.671798 3070.08734,519.101563 C3075.75143,534.726641 3085.224,542.539063 3098.50531,542.539063 C3111.78663,542.539063 3121.06388,534.824296 3126.33734,519.394531 C3131.80612,504.941334 3134.54047,478.281444 3134.54047,439.414063 Z M3245.00272,286.777344 L3300.95975,286.777344 L3300.95975,324.570312 C3310.53011,308.554607 3320.00267,297.324251 3329.37772,290.878906 C3338.75277,284.433562 3351.15499,280.722661 3366.58475,279.746094 L3366.58475,338.339844 C3362.67848,337.753903 3359.3582,337.460938 3356.62381,337.460938 C3336.50652,337.460938 3322.1512,342.636667 3313.55741,352.988281 C3305.15893,363.144582 3300.95975,380.917842 3300.95975,406.308594 L3300.95975,590 L3245.00272,590 L3245.00272,286.777344 Z" id="ViewAnimator" fill="#1E62B0"></path>
        </g>
    </g>
</svg>