<?xml version="1.0" encoding="UTF-8"?>
<svg width="118px" height="236px" viewBox="0 0 118 236" version="1.1" xmlns="http://www.w3.org/2000/svg" xmlns:xlink="http://www.w3.org/1999/xlink">
    <desc>Created with Sketch.</desc>
    <defs></defs>
    <g id="Page-1" stroke="none" stroke-width="1" fill="none" fill-rule="evenodd">
        <g id="iphone-x-flat-buttons">
            <path d="M99.0615385,6.07141895 L89.7442308,6.07141895 C87.75,6.07141895 87.0307692,5.80759814 86.9,8.3468734 C86.8346154,9.66597743 86.3442308,10.6553054 85.5923077,11.4797455 C84.8076923,12.3041855 83.7615385,13.0296927 82.5519231,13.3924463 C81.7346154,13.6562671 80.8192308,13.9530655 79.9365385,13.9530655 L78.1711538,13.9530655 L38.6788462,13.9530655 L36.9134615,13.9530655 C36.0307692,13.9530655 35.1153846,13.6232895 34.2980769,13.3594687 C33.0884615,12.9637375 32.0096154,12.2712079 31.2576923,11.4467679 C30.4730769,10.5893502 30.0153846,9.63299983 29.95,8.3138958 C29.8192308,5.77462054 29.1,6.00546374 27.1057692,6.00546374 L17.6903846,6.00546374 C11.9692308,6.07141895 7,10.1606414 7,15.898744 L7,218.150369 C7,223.921449 11.9692308,229 17.6576923,229 L99.0615385,229 C104.782692,229 109,223.921449 109,218.150369 L109,15.898744 C109,10.1606414 104.782692,6.07141895 99.0615385,6.07141895 Z" id="XMLID_158_"></path>
            <path d="M116.688889,53.5766017 L116.688889,16.6317549 C116.688889,7.16545961 109.346667,0 99.9066667,0 L18.3555556,0 C8.91555556,0 0.983333333,7.19832869 0.983333333,16.6317549 L0.983333333,30.8969359 L0,30.8969359 L0,39.7715877 L0.983333333,39.7715877 L0.983333333,47.9888579 L0,47.9888579 L0,64.7520891 L0.983333333,64.7520891 L0.983333333,69.6824513 L0,69.6824513 L0,86.4456825 L0.983333333,86.4456825 L0.983333333,218.382173 C0.983333333,227.848468 8.94833333,236 18.3555556,236 L99.9066667,236 C109.346667,236 116.688889,227.848468 116.688889,218.382173 L116.688889,80.8579387 L118,80.8579387 L118,53.5766017 L116.688889,53.5766017 Z M72.865,7.39554318 C72.865,8.18440111 72.2094444,8.84178273 71.4227778,8.84178273 C70.6361111,8.84178273 69.9805556,8.18440111 69.9805556,7.39554318 C69.9805556,6.60668524 70.6361111,5.94930362 71.4227778,5.94930362 C72.2094444,5.94930362 72.865,6.60668524 72.865,7.39554318 Z M53.3622222,7.23119777 L66.1455556,7.23119777 C66.7027778,7.23119777 67.1288889,7.55988858 67.1288889,8.05292479 C67.1288889,8.545961 66.7027778,8.87465181 66.1455556,8.87465181 L53.3622222,8.87465181 C52.805,8.87465181 52.3788889,8.545961 52.3788889,8.05292479 C52.3788889,7.55988858 52.805,7.23119777 53.3622222,7.23119777 Z M110.461111,217.626184 C110.461111,223.378273 106.232778,228.440111 100.496667,228.440111 L18.88,228.440111 C13.1438889,228.440111 8.19444444,223.378273 8.19444444,217.626184 L8.19444444,16.0401114 C8.19444444,10.3208914 13.1766667,6.24512535 18.88,6.24512535 L28.32,6.24512535 C30.3194444,6.24512535 31.0405556,5.94930362 31.1716667,8.48022284 C31.2372222,9.79498607 31.7288889,10.7810585 32.4827778,11.6356546 C33.2694444,12.4573816 34.3183333,13.2133705 35.5311111,13.5749304 C36.3505556,13.837883 37.2683333,14.1337047 38.1533333,14.1337047 L39.9233333,14.1337047 L79.4861111,14.1337047 L81.2561111,14.1337047 C82.1411111,14.1337047 83.0588889,13.7721448 83.8783333,13.5091922 C85.0911111,13.1147632 86.1727778,12.4573816 86.9266667,11.6356546 C87.7133333,10.8139276 88.1722222,9.86072423 88.2377778,8.545961 C88.3688889,6.01504178 89.09,6.21225627 91.0894444,6.21225627 L100.431111,6.21225627 C106.167222,6.21225627 110.395556,10.2880223 110.395556,16.0072423 L110.395556,217.626184 L110.461111,217.626184 Z" id="XMLID_156_" fill="#000000" fill-rule="nonzero"></path>
            <path d="M66,7 L53,7 C52.4333333,7 52,7.2 52,7.5 C52,7.8 52.4333333,8 53,8 L66,8 C66.5666667,8 67,7.8 67,7.5 C67,7.2 66.5333333,7 66,7 Z" id="XMLID_159_" fill="#F2F2F2" fill-rule="nonzero"></path>
            <circle id="XMLID_51_" fill="#F2F2F2" fill-rule="nonzero" cx="71.5" cy="7.5" r="1.5"></circle>
            <!-- <g id="table" transform="translate(16.000000, 30.000000)" fill="#D8D8D8">
                <rect id="cell1" x="0" y="0" width="86" height="29" rx="4"></rect>
                <rect id="cell2" x="0" y="39" width="86" height="29" rx="4"></rect>
                <rect id="cell3" x="0" y="78" width="86" height="29" rx="4"></rect>
                <rect id="cell4" x="0" y="117" width="86" height="29" rx="4"></rect>
            </g> -->
            <g transform="translate(0, 21)">
                <g transform="translate(4, 14)">
                    <g transform="translate(12, 0)" opacity="0"></g>
                    <rect id="Rectangle-1" fill="#DDDDDD" x="15" y="38" width="80" height="30" rx="4">
                        <animate 
                            attributeName="y" 
                            values="38;21;21;38;38" 
                            dur="2s"
                            keyTimes="0;0.15;0.5;0.65;1"
                            calcMode="spline"
                            keySplines="0.4,0,0.2,1;0.4,0,0.2,1;0.4,0,0.2,1;0.4,0,0.2,1"
                            begin="0.0s"
                            repeatCount="indefinite"
                            fill="freeze" />
                       <animate 
                            attributeName="opacity" 
                            values="0;1;1;0;0" 
                            dur="2s"
                            keyTimes="0;0.15;0.5;0.65;1"
                            calcMode="spline"
                            begin="0.0s"
                            keySplines="0.4,0,0.2,1;0.4,0,0.2,1;0.4,0,0.2,1;0.4,0,0.2,1"
                            repeatCount="indefinite"
                            fill="freeze" />
                    </rect>
                    <rect id="Rectangle-2" fill="#DDDDDD" x="15" y="78" width="80" height="30" rx="4">
                        <animate 
                            attributeName="y" 
                            values="78;61;61;78;78" 
                            dur="2s"
                            keyTimes="0;0.15;0.5;0.65;1"
                            calcMode="spline"
                            keySplines="0.4,0,0.2,1;0.4,0,0.2,1;0.4,0,0.2,1;0.4,0,0.2,1"
                            begin="0.05s"
                            repeatCount="indefinite"
                            fill="freeze" />
                       <animate 
                            attributeName="opacity" 
                            values="0;1;1;0;0" 
                            dur="2s"
                            keyTimes="0;0.15;0.5;0.65;1"
                            calcMode="spline"
                            begin="0.05s"
                            keySplines="0.4,0,0.2,1;0.4,0,0.2,1;0.4,0,0.2,1;0.4,0,0.2,1"
                            repeatCount="indefinite"
                            fill="freeze" />
                    </rect>
                    <rect id="Rectangle-3" fill="#DDDDDD" x="15" y="118" width="80" height="30" rx="4">
                        <animate 
                            attributeName="y" 
                            values="118;101;101;118;1178" 
                            dur="2s"
                            keyTimes="0;0.15;0.5;0.65;1"
                            calcMode="spline"
                            keySplines="0.4,0,0.2,1;0.4,0,0.2,1;0.4,0,0.2,1;0.4,0,0.2,1"
                            begin="0.1s"
                            repeatCount="indefinite"
                            fill="freeze" />
                       <animate 
                            attributeName="opacity" 
                            values="0;1;1;0;0" 
                            dur="2s"
                            keyTimes="0;0.15;0.5;0.65;1"
                            calcMode="spline"
                            begin="0.1s"
                            keySplines="0.4,0,0.2,1;0.4,0,0.2,1;0.4,0,0.2,1;0.4,0,0.2,1"
                            repeatCount="indefinite"
                            fill="freeze" />
                    </rect>
                    <rect id="Rectangle-4" fill="#DDDDDD" x="15" y="158" width="80" height="30" rx="4">
                        <animate 
                            attributeName="y" 
                            values="158;141;141;158;158" 
                            dur="2s"
                            keyTimes="0;0.15;0.5;0.65;1"
                            calcMode="spline"
                            keySplines="0.4,0,0.2,1;0.4,0,0.2,1;0.4,0,0.2,1;0.4,0,0.2,1"
                            begin="0.15s"
                            repeatCount="indefinite"
                            fill="freeze" />
                       <animate 
                            attributeName="opacity" 
                            values="0;1;1;0;0" 
                            dur="2s"
                            keyTimes="0;0.15;0.5;0.65;1"
                            calcMode="spline"
                            begin="0.15s"
                            keySplines="0.4,0,0.2,1;0.4,0,0.2,1;0.4,0,0.2,1;0.4,0,0.2,1"
                            repeatCount="indefinite"
                            fill="freeze" />
                    </rect>
                </g>
            </g>
        </g>
    </g>
</svg>